<?xml version="1.0" encoding="UTF-8" standalone="no"?>
<!-- Created with Inkscape (http://www.inkscape.org/) -->

<svg
   width="143.46909mm"
   height="184.73395mm"
   viewBox="0 0 143.46909 184.73395"
   version="1.1"
   id="svg1"
   xml:space="preserve"
   sodipodi:docname="ansible-docsmith-logo.svg"
   inkscape:version="1.4.2 (ebf0e940d0, 2025-05-08)"
   xmlns:inkscape="http://www.inkscape.org/namespaces/inkscape"
   xmlns:sodipodi="http://sodipodi.sourceforge.net/DTD/sodipodi-0.dtd"
   xmlns="http://www.w3.org/2000/svg"
   xmlns:svg="http://www.w3.org/2000/svg"><sodipodi:namedview
     id="namedview1"
     pagecolor="#ffffff"
     bordercolor="#000000"
     borderopacity="0.25"
     inkscape:showpageshadow="2"
     inkscape:pageopacity="0.0"
     inkscape:pagecheckerboard="0"
     inkscape:deskcolor="#d1d1d1"
     inkscape:document-units="mm"
     inkscape:zoom="5.8457335"
     inkscape:cx="593.76637"
     inkscape:cy="216.05501"
     inkscape:window-width="2560"
     inkscape:window-height="1403"
     inkscape:window-x="0"
     inkscape:window-y="0"
     inkscape:window-maximized="1"
     inkscape:current-layer="layer1" /><defs
     id="defs1"><rect
       x="-13.547651"
       y="359.98044"
       width="471.26474"
       height="270.95303"
       id="rect3" /><rect
       x="148.05647"
       y="378.36655"
       width="194.50557"
       height="89.99511"
       id="rect2" /><rect
       x="139.34727"
       y="342.56204"
       width="124.22712"
       height="63.504612"
       id="rect1" /></defs><g
     inkscape:label="Layer 1"
     inkscape:groupmode="layer"
     id="layer1"
     transform="translate(-44.702803,-18.992206)"><text
       xml:space="preserve"
       transform="matrix(1.3766553,0,0,1.3766553,-161.53872,-321.79777)"
       id="text1"
       style="text-align:start;writing-mode:lr-tb;direction:ltr;white-space:pre;shape-inside:url(#rect1);display:inline;fill:#000000"
       x="79.263794"
       y="0"><tspan
         x="148.75702"
         y="361.22914"
         id="tspan8"><tspan
           style="font-weight:600;font-size:21.3333px;font-family:Poppins;-inkscape-font-specification:'Poppins Semi-Bold';text-align:center;text-anchor:middle"
           id="tspan2">DocSmith</tspan><tspan
           style="font-weight:600;font-family:Poppins;-inkscape-font-specification:'Poppins Semi-Bold';text-align:center;text-anchor:middle"
           id="tspan7">
</tspan></tspan><tspan
         x="172.67152"
         y="380.14763"
         id="tspan10"><tspan
           style="font-weight:600;font-size:10.6667px;font-family:Poppins;-inkscape-font-specification:'Poppins Semi-Bold';text-align:center;text-anchor:middle"
           id="tspan9">for Ansible</tspan></tspan></text><text
       xml:space="preserve"
       transform="scale(0.26458333)"
       id="text3"
       style="text-align:start;writing-mode:lr-tb;direction:ltr;white-space:pre;shape-inside:url(#rect3);display:inline;fill:#000000" /><path
       d="M 86.862708,23.386213 V 35.198455 H 98.674941 M 86.862708,23.386213 H 63.23822 V 70.635176 H 98.674941 V 35.198455 Z"
       stroke="#121923"
       stroke-width="6.57204"
       id="path1-9"
       style="fill:#ffffff;stroke:#ff0000;stroke-width:3;stroke-dasharray:none;stroke-opacity:1" /><path
       style="fill:#000000;stroke:#ffffff;stroke-width:2.65775;stroke-dasharray:none;stroke-opacity:1"
       d="m 84.166895,142.44295 c -0.374654,-0.34317 -0.56678,-7.4725 -0.22276,-8.2661 0.231815,-0.53477 0.603984,-0.79317 1.73851,-1.20705 0.95296,-0.34764 1.473563,-0.54902 1.852321,-0.71651 0.173067,-0.0765 0.34937,-0.13915 0.391783,-0.13915 0.04242,0 0.221472,-0.0658 0.397906,-0.14631 0.176433,-0.0804 0.557062,-0.23474 0.845841,-0.34281 1.096293,-0.41026 1.376165,-0.53714 2.28773,-1.03717 0.515677,-0.28288 0.983387,-0.55173 1.039354,-0.59745 0.05596,-0.0457 0.164938,-0.1182 0.242158,-0.16107 1.420047,-0.78827 2.947757,-2.06052 4.423935,-3.6842 0.2345,-0.25794 0.71183,-0.89406 0.93272,-1.24301 0.0413,-0.0652 0.20158,-0.30934 0.35629,-0.5426 0.1547,-0.23326 0.28127,-0.44612 0.28127,-0.47301 0,-0.0268 0.0456,-0.10218 0.10137,-0.16731 0.16765,-0.19584 0.87373,-1.6326 0.87373,-1.77788 0,-0.0237 0.0486,-0.1494 0.10807,-0.2794 0.17377,-0.38005 0.491697,-1.3874 0.495277,-1.56932 0.002,-0.092 0.0522,-0.3022 0.11185,-0.46722 0.28159,-0.77831 0.30144,-4.1899 0.0274,-4.70202 -0.0388,-0.0726 -0.10416,-0.31004 -0.14518,-0.52774 -0.041,-0.21769 -0.14158,-0.53889 -0.22346,-0.71377 -0.0819,-0.17488 -0.148887,-0.34935 -0.148887,-0.38771 0,-0.0384 -0.0462,-0.16531 -0.10256,-0.2821 -0.0564,-0.11679 -0.1829,-0.38111 -0.28109,-0.58739 -0.0982,-0.20626 -0.32206,-0.59046 -0.4975,-0.85376 -0.17544,-0.26331 -0.31897,-0.49084 -0.31897,-0.50566 0,-0.0632 -0.58151,-0.78254 -1.04059,-1.28707 -1.870488,-2.05569 -4.277377,-3.42395 -7.922815,-4.50395 -0.28878,-0.0856 -0.70084,-0.20804 -0.915692,-0.27218 -0.417727,-0.12471 -0.961205,-0.25606 -2.159618,-0.52193 -0.412542,-0.0915 -0.800706,-0.18803 -0.862587,-0.21446 -0.06188,-0.0264 -0.331908,-0.0845 -0.60006,-0.12912 -0.268153,-0.0446 -0.571933,-0.11358 -0.675068,-0.15329 -0.103136,-0.0397 -0.457546,-0.12448 -0.787579,-0.18838 -0.330034,-0.0639 -1.005102,-0.19754 -1.500152,-0.297 -0.49505,-0.0994 -1.186995,-0.23387 -1.537655,-0.29869 -0.35066,-0.0649 -0.705071,-0.14668 -0.78758,-0.18191 -0.0825,-0.0353 -0.386288,-0.10684 -0.675068,-0.1591 -0.288778,-0.0523 -0.575682,-0.12 -0.637563,-0.15053 -0.06188,-0.0306 -0.348785,-0.11232 -0.637565,-0.18175 -1.58134,-0.38027 -1.967474,-0.47962 -2.137715,-0.55001 -0.103136,-0.0426 -0.69382,-0.23628 -1.312633,-0.43031 -1.641683,-0.51473 -2.231515,-0.70771 -2.400241,-0.7853 -0.169829,-0.0781 -0.917784,-0.34035 -1.312633,-0.46023 -0.144389,-0.0438 -0.300377,-0.11048 -0.346638,-0.14809 -0.04626,-0.0376 -0.26566,-0.12202 -0.48755,-0.187577 -0.551962,-0.16306 -3.796498,-1.562948 -4.431697,-1.912102 -0.283436,-0.155799 -0.590014,-0.306449 -0.681284,-0.334776 -0.09127,-0.02832 -0.255541,-0.114581 -0.365044,-0.191677 -0.109504,-0.07709 -0.237446,-0.140175 -0.284316,-0.140175 -0.04687,0 -0.185111,-0.06751 -0.307203,-0.150015 -0.122092,-0.08251 -0.321879,-0.217522 -0.443971,-0.300031 -0.122094,-0.0825 -0.246706,-0.150015 -0.276918,-0.150015 -0.05692,0 -0.916458,-0.491166 -1.376288,-0.786456 -0.881946,-0.566362 -2.747679,-1.825453 -3.225325,-2.176615 -0.309407,-0.227473 -0.646941,-0.470735 -0.750075,-0.540583 -0.103136,-0.06985 -0.23815,-0.170315 -0.300031,-0.223264 -0.166527,-0.142486 -1.032649,-0.84419 -1.462647,-1.18499 -0.206271,-0.163481 -0.513166,-0.433125 -0.681989,-0.599208 -0.168823,-0.166083 -0.652533,-0.60575 -1.074912,-0.977041 -0.757111,-0.665527 -1.605967,-1.555801 -2.252802,-2.362738 -0.181882,-0.226892 -0.379826,-0.453438 -0.439875,-0.503422 -0.06005,-0.04997 -0.146692,-0.154858 -0.192539,-0.233049 -0.04585,-0.07823 -0.18462,-0.287542 -0.308382,-0.46523 -0.275134,-0.395003 -0.530881,-0.809382 -0.625892,-1.014099 -0.03908,-0.08425 -0.125198,-0.198038 -0.191377,-0.252964 -0.06618,-0.05493 -0.120754,-0.13792 -0.121278,-0.18443 -5.25e-4,-0.04651 -0.139,-0.354606 -0.307723,-0.684636 -0.643898,-1.259507 -0.809966,-2.238444 -0.472847,-2.78734 0.744332,-1.211942 -1.703704,-1.075555 19.305168,-1.075555 18.069154,0 18.069154,0 18.212671,-0.182446 0.110184,-0.140081 0.163918,-0.404208 0.231359,-1.137259 0.04832,-0.525136 0.116541,-0.991526 0.151615,-1.036416 0.03507,-0.04492 0.08558,-0.172966 0.112224,-0.284609 0.116737,-0.489097 95.241967,-0.376701 95.796797,0.01816 0.83166,0.592022 0.98489,1.284516 1.02424,4.628991 0.003,0.575273 -0.007,2.6535 -0.0382,4.086186 -0.0694,3.165422 -0.0903,3.193691 -2.60071,3.513622 -0.59819,0.07628 -1.49265,0.189834 -1.9877,0.25246 -0.49505,0.06262 -1.01823,0.147562 -1.16262,0.188749 -0.14439,0.04119 -0.68445,0.128809 -1.20011,0.194719 -0.51568,0.06591 -1.0051,0.149644 -1.08762,0.186079 -0.0825,0.03644 -0.42004,0.103193 -0.75007,0.148352 -0.33003,0.04516 -0.65069,0.103378 -0.71257,0.129377 -0.0619,0.026 -0.39942,0.106938 -0.75007,0.179864 -0.35067,0.07293 -0.94135,0.203721 -1.31264,0.29066 -0.37129,0.08693 -1.02948,0.238224 -1.46265,0.336192 -0.43316,0.09797 -1.04073,0.250698 -1.35013,0.3394 -0.7396,0.212034 -1.4747,0.411422 -2.21273,0.600182 -0.33003,0.08441 -0.66756,0.18209 -0.75007,0.217067 -0.0825,0.03498 -0.48755,0.170622 -0.90009,0.301435 -0.41254,0.130811 -0.80801,0.269524 -0.8788,0.308248 -0.0708,0.03872 -0.25645,0.103263 -0.41254,0.143419 -0.40528,0.104256 -1.20178,0.369106 -1.59645,0.530844 -0.34603,0.141807 -1.27413,0.511993 -1.87519,0.747955 -0.46918,0.184188 -1.81316,0.80073 -2.81279,1.290343 -0.63837,0.312676 -2.44288,1.325953 -3.1128,1.747919 -0.35067,0.22087 -0.84009,0.524816 -1.08762,0.675434 -0.24752,0.150619 -0.68632,0.441394 -0.9751,0.646164 -0.28877,0.20478 -0.61528,0.431367 -0.72556,0.503527 -0.67814,0.44373 -2.85586,2.20139 -3.40421,2.74756 -0.24992,0.24893 -0.57058,0.55857 -0.71257,0.6881 -0.72621,0.66247 -2.57449,2.8277 -2.87275,3.36537 -0.0685,0.12348 -0.293,0.46075 -0.4989,0.74949 -0.2059,0.28873 -0.37437,0.54967 -0.37437,0.57985 0,0.0302 -0.11303,0.23274 -0.25118,0.45013 -0.39553,0.62238 -1.39899,2.6334 -1.39899,2.80371 0,0.0711 -0.35895,1.00373 -0.44882,1.16616 -0.0378,0.0684 -0.12412,0.41965 -0.19177,0.78066 -0.0677,0.36102 -0.15453,0.71013 -0.19306,0.77581 -0.0749,0.1278 -0.27655,1.63025 -0.34309,2.55718 -0.0222,0.30941 -0.004,0.81571 0.0409,1.12511 0.0446,0.30941 0.11809,0.86634 0.16315,1.23763 0.0451,0.37129 0.11074,0.74257 0.14593,0.82508 0.0352,0.0825 0.1182,0.38628 0.18445,0.67507 0.0663,0.28878 0.16684,0.64319 0.22353,0.78758 0.36068,0.91866 0.84029,1.95202 1.13139,2.43774 0.0989,0.16502 0.2118,0.36893 0.25087,0.45313 0.0391,0.0843 0.12521,0.19803 0.19139,0.25296 0.0662,0.0549 0.12032,0.12786 0.12032,0.16209 0,0.0887 0.6408,1.00097 1.07612,1.53206 0.60551,0.73875 2.22805,2.27584 3.06534,2.90391 0.0943,0.0708 0.35712,0.27632 0.58402,0.45683 0.45869,0.36491 1.50933,1.05994 2.01895,1.33558 0.1822,0.0985 0.47746,0.26356 0.65614,0.36669 0.17868,0.10314 0.67092,0.36816 1.09386,0.58895 0.42296,0.22078 0.81963,0.44422 0.88152,0.49651 0.0619,0.0523 0.19689,0.12513 0.30003,0.16185 0.20006,0.0712 1.2922,0.64161 1.91269,0.99892 0.20627,0.11878 0.4763,0.26465 0.60006,0.32416 1.14528,0.55073 1.32965,1.02719 1.3709,3.54273 0.0606,3.69395 -0.0719,4.3187 -1.03337,4.87391 -0.54682,0.31576 -72.277398,0.25833 -72.622914,-0.0581 z"
       id="path6"
       sodipodi:nodetypes="cssssssssssssssssccsssssssssssssssssssssssssssssssssssssssssssssscsssssssssccscssssssssssssssssssssssscsssssscscccccssssssssssscssscscc" /><path
       d="m 102.25869,41.795679 v 11.812242 h 11.81223 M 102.25869,41.795679 H 78.634205 V 89.044647 H 114.07092 V 53.607921 Z"
       stroke="#121923"
       stroke-width="6.57204"
       id="path1-9-3"
       style="fill:#ffffff;stroke:#ff0000;stroke-width:3;stroke-dasharray:none;stroke-opacity:1" /><g
       id="g2"
       transform="matrix(-0.08087914,-0.0775587,-0.0775587,0.08087914,106.52192,50.027963)"
       style="fill:#ff0000;stroke:#ffffff;stroke-width:18.7362;stroke-dasharray:none;stroke-opacity:1">
	
	<g
   id="g6"
   transform="matrix(-0.04189636,-0.99912196,-0.99912196,0.04189636,45.335449,-3.0326321)"
   style="stroke-width:18.7362;stroke-dasharray:none"><path
     class="st0"
     d="M 423.29,90.281 C 398.149,53.719 351.306,0 280.071,0 c -39.609,0 -86.875,0 -86.875,0 -3.578,0 -6.484,2.906 -6.484,6.469 v 3.063 c 0,3.563 -2.891,6.469 -6.469,6.469 H 159.68 c -3.578,0 -6.469,-2.906 -6.469,-6.469 V 6.469 C 153.211,2.906 150.305,0 146.727,0 H 96.431 C 89.29,0 83.478,5.813 83.478,12.969 v 64.344 c 0,7.172 5.813,12.969 12.953,12.969 h 50.297 c 3.578,0 6.484,-2.906 6.484,-6.469 v -3.047 c 0,-3.578 2.891,-6.484 6.469,-6.484 h 20.563 c 3.578,0 6.469,2.906 6.469,6.484 v 9.516 52.578 h 91.438 v -26.656 c 0,-14.313 11.609,-25.922 25.906,-25.922 0,0 6.641,0 7.234,0 48,0 73.156,10.281 97.156,20.563 15.281,6.561 27.421,-6.845 14.843,-20.564 z"
     id="path1"
     style="fill:#ff0000;stroke:#ffffff;stroke-width:18.7362;stroke-dasharray:none;stroke-opacity:1" /><path
     class="st0"
     d="m 266.056,512 c 5.234,0 10.234,-2.109 13.906,-5.844 3.656,-3.75 5.641,-8.813 5.531,-14.031 l -7.344,-321.844 h -91.438 l -7.328,321.844 c -0.125,5.219 1.875,10.281 5.531,14.031 3.656,3.734 8.672,5.844 13.891,5.844 z"
     id="path2"
     style="fill:#ff0000;stroke:#ffffff;stroke-width:18.7362;stroke-dasharray:none;stroke-opacity:1" /></g>
</g></g></svg>
