<?xml version="1.0" encoding="UTF-8" standalone="no"?>
<!-- Created with Inkscape (http://www.inkscape.org/) -->

<svg
   width="90.319283mm"
   height="122.82969mm"
   viewBox="0 0 90.319286 122.82969"
   version="1.1"
   id="svg1"
   xml:space="preserve"
   sodipodi:docname="ansible-docsmith-logo-03.svg"
   inkscape:version="1.4.2 (ebf0e940d0, 2025-05-08)"
   xmlns:inkscape="http://www.inkscape.org/namespaces/inkscape"
   xmlns:sodipodi="http://sodipodi.sourceforge.net/DTD/sodipodi-0.dtd"
   xmlns="http://www.w3.org/2000/svg"
   xmlns:svg="http://www.w3.org/2000/svg"><sodipodi:namedview
     id="namedview1"
     pagecolor="#ffffff"
     bordercolor="#000000"
     borderopacity="0.25"
     inkscape:showpageshadow="2"
     inkscape:pageopacity="0.0"
     inkscape:pagecheckerboard="0"
     inkscape:deskcolor="#d1d1d1"
     inkscape:document-units="mm"
     inkscape:zoom="0.73071669"
     inkscape:cx="133.43065"
     inkscape:cy="134.1149"
     inkscape:window-width="2560"
     inkscape:window-height="1371"
     inkscape:window-x="0"
     inkscape:window-y="0"
     inkscape:window-maximized="1"
     inkscape:current-layer="layer1" /><defs
     id="defs1"><rect
       x="-13.547651"
       y="359.98044"
       width="471.26474"
       height="270.95303"
       id="rect3" /><rect
       x="148.05647"
       y="378.36655"
       width="194.50557"
       height="89.99511"
       id="rect2" /><rect
       x="139.34727"
       y="342.56204"
       width="87.448563"
       height="97.717224"
       id="rect1" /></defs><g
     inkscape:label="Layer 1"
     inkscape:groupmode="layer"
     id="layer1"
     transform="translate(-71.277706,-24.563275)"><path
       d="m 130.29251,28.1575 v 28.910305 h 27.71025 M 130.29251,28.1575 H 74.871931 V 143.79874 H 158.00276 V 57.067805 Z"
       stroke="#121923"
       stroke-width="6.57204"
       id="path1-9"
       style="fill:#ffffff;stroke:#ff0000;stroke-width:7.18845;stroke-dasharray:none;stroke-opacity:1;fill-opacity:1"
       sodipodi:nodetypes="ccccccccc" /><text
       xml:space="preserve"
       transform="matrix(0.8466759,0,0,0.8466759,-31.083078,-248.2975)"
       id="text1"
       style="font-size:18.3331px;line-height:1.5;text-align:start;writing-mode:lr-tb;direction:ltr;white-space:pre;shape-inside:url(#rect1);display:inline;fill:#000000;fill-opacity:1;stroke:#ffffff;stroke-width:2.5984;stroke-dasharray:none;stroke-opacity:1;paint-order:markers stroke fill"
       x="110.54909"
       y="0"><tspan
         x="139.34766"
         y="361.53497"
         id="tspan3"><tspan
           style="font-weight:600;font-family:Poppins;-inkscape-font-specification:'Poppins Semi-Bold'"
           id="tspan2">Doc
</tspan></tspan><tspan
         x="139.34766"
         y="389.67398"
         id="tspan5"><tspan
           style="font-weight:600;font-family:Poppins;-inkscape-font-specification:'Poppins Semi-Bold'"
           id="tspan4">Smith
</tspan></tspan></text><text
       xml:space="preserve"
       transform="scale(0.26458333)"
       id="text3"
       style="text-align:start;writing-mode:lr-tb;direction:ltr;white-space:pre;shape-inside:url(#rect3);display:inline;fill:#000000" /><g
       id="g3"
       style="paint-order:markers stroke fill;stroke-width:2.2;stroke-dasharray:none"><path
         style="fill:#000000;stroke:#ffffff;stroke-width:2.2;stroke-dasharray:none;stroke-opacity:1;paint-order:markers stroke fill"
         d="m 102.70822,132.00524 c -0.15785,-0.14459 -0.2388,-3.14827 -0.0939,-3.48263 0.0976,-0.2253 0.25447,-0.33416 0.73246,-0.50854 0.4015,-0.14646 0.62083,-0.23131 0.78041,-0.30188 0.0729,-0.0322 0.14719,-0.0586 0.16507,-0.0586 0.0178,0 0.0933,-0.0277 0.16764,-0.0617 0.0743,-0.0338 0.23469,-0.099 0.35636,-0.14444 0.46189,-0.17285 0.5798,-0.2263 0.96385,-0.43697 0.21727,-0.11918 0.41432,-0.23245 0.4379,-0.25171 0.0236,-0.0192 0.0695,-0.0498 0.10202,-0.0679 0.59829,-0.33211 1.24192,-0.86812 1.86386,-1.5522 0.0987,-0.10867 0.29991,-0.37668 0.39297,-0.5237 0.0174,-0.0274 0.085,-0.13033 0.15011,-0.2286 0.0652,-0.0982 0.1185,-0.18796 0.1185,-0.19929 0,-0.0113 0.0192,-0.043 0.0427,-0.0705 0.0706,-0.0825 0.36811,-0.68784 0.36811,-0.74905 0,-0.0101 0.0205,-0.0629 0.0456,-0.11771 0.0732,-0.16012 0.20716,-0.58453 0.20867,-0.66117 8.4e-4,-0.0388 0.022,-0.12733 0.0471,-0.19685 0.11864,-0.32792 0.127,-1.76526 0.0115,-1.98103 -0.0163,-0.0306 -0.0438,-0.13062 -0.0612,-0.22234 -0.0172,-0.0917 -0.0596,-0.22704 -0.0942,-0.30072 -0.0345,-0.0736 -0.0627,-0.14718 -0.0627,-0.16335 0,-0.0162 -0.0194,-0.0697 -0.0432,-0.11885 -0.0238,-0.0492 -0.0771,-0.16056 -0.11843,-0.24748 -0.0414,-0.0869 -0.13569,-0.24877 -0.2096,-0.3597 -0.0739,-0.11093 -0.13439,-0.2068 -0.13439,-0.21304 0,-0.0266 -0.24499,-0.3297 -0.43841,-0.54226 -0.78807,-0.86609 -1.80211,-1.44256 -3.33799,-1.89758 -0.12166,-0.0361 -0.29527,-0.0876 -0.38579,-0.11467 -0.176,-0.0526 -0.40497,-0.10788 -0.90988,-0.21989 -0.1738,-0.0386 -0.33734,-0.0792 -0.36342,-0.0903 -0.026,-0.0111 -0.13983,-0.0357 -0.25281,-0.0544 -0.11297,-0.0188 -0.24097,-0.0479 -0.28441,-0.0646 -0.0434,-0.0167 -0.19278,-0.0525 -0.33182,-0.0794 -0.13905,-0.0269 -0.42347,-0.0832 -0.63204,-0.12512 -0.20857,-0.0418 -0.5001,-0.0985 -0.64783,-0.12584 -0.14774,-0.0274 -0.29706,-0.0618 -0.33183,-0.0767 -0.0347,-0.0149 -0.16275,-0.045 -0.28441,-0.067 -0.12166,-0.0221 -0.24254,-0.0505 -0.26861,-0.0634 -0.026,-0.0129 -0.14695,-0.0473 -0.26862,-0.0766 -0.666243,-0.16021 -0.828931,-0.20207 -0.900657,-0.23172 -0.04345,-0.0179 -0.29232,-0.0996 -0.553032,-0.1813 -0.691656,-0.21686 -0.940164,-0.29817 -1.011249,-0.33086 -0.0716,-0.0329 -0.386677,-0.14339 -0.553042,-0.1939 -0.06087,-0.0184 -0.126542,-0.0466 -0.146038,-0.0624 -0.01955,-0.0158 -0.111919,-0.0514 -0.205405,-0.079 -0.232558,-0.0687 -1.599525,-0.65849 -1.867143,-0.8056 -0.119413,-0.0656 -0.248579,-0.12911 -0.287033,-0.14104 -0.03848,-0.0119 -0.107666,-0.0483 -0.153796,-0.0807 -0.04608,-0.0325 -0.10006,-0.059 -0.119788,-0.059 -0.01975,0 -0.07798,-0.0285 -0.129429,-0.0632 -0.05145,-0.0347 -0.135607,-0.0917 -0.187055,-0.1264 -0.05145,-0.0347 -0.103928,-0.0632 -0.116668,-0.0632 -0.024,0 -0.386111,-0.20693 -0.579839,-0.33134 -0.371578,-0.23862 -1.157642,-0.76909 -1.358875,-0.91704 -0.130361,-0.0958 -0.272571,-0.19833 -0.316018,-0.22776 -0.04345,-0.0295 -0.100364,-0.0718 -0.126411,-0.0941 -0.07018,-0.0601 -0.435067,-0.35567 -0.616227,-0.49925 -0.08689,-0.0689 -0.216212,-0.18248 -0.287337,-0.25245 -0.07109,-0.07 -0.274921,-0.25522 -0.452871,-0.41165 -0.318985,-0.28041 -0.676617,-0.65549 -0.949147,-0.99546 -0.07666,-0.0956 -0.160014,-0.19104 -0.185323,-0.2121 -0.02532,-0.0211 -0.06178,-0.0652 -0.08112,-0.0981 -0.01934,-0.0329 -0.07778,-0.12115 -0.129926,-0.19601 -0.115929,-0.16642 -0.223675,-0.34101 -0.263699,-0.42727 -0.01651,-0.0354 -0.05276,-0.0834 -0.08061,-0.10657 -0.02785,-0.0231 -0.05084,-0.0581 -0.05114,-0.0777 -2.23e-4,-0.0195 -0.05854,-0.1494 -0.129652,-0.28845 -0.271275,-0.53065 -0.341246,-0.94308 -0.199218,-1.17435 0.313597,-0.51061 -0.717785,-0.45314 8.133542,-0.45314 7.612786,0 7.612786,0 7.673256,-0.0769 0.0464,-0.059 0.0691,-0.1703 0.0974,-0.47914 0.0204,-0.22126 0.0491,-0.41775 0.0639,-0.43666 0.0148,-0.0189 0.0361,-0.0729 0.0473,-0.11991 0.0492,-0.20606 40.12673,-0.15871 40.36049,0.008 0.35039,0.24943 0.41495,0.54119 0.43153,1.95027 0.001,0.24237 -0.003,1.11796 -0.0161,1.72157 -0.0293,1.33365 -0.0381,1.34556 -1.09571,1.48035 -0.25202,0.0322 -0.62888,0.08 -0.83744,0.10637 -0.20858,0.0263 -0.429,0.0622 -0.48984,0.0795 -0.0609,0.0173 -0.28836,0.0543 -0.50561,0.082 -0.21727,0.0277 -0.42347,0.0631 -0.45824,0.0784 -0.0347,0.0153 -0.17697,0.0434 -0.31601,0.0625 -0.13905,0.019 -0.27415,0.0435 -0.30022,0.0545 -0.026,0.0109 -0.16828,0.0451 -0.31601,0.0758 -0.14774,0.0307 -0.39661,0.0859 -0.55304,0.12246 -0.15643,0.0367 -0.43373,0.10037 -0.61622,0.14165 -0.1825,0.0413 -0.43848,0.10562 -0.56883,0.143 -0.31161,0.0893 -0.62131,0.17333 -0.93226,0.25286 -0.13905,0.0356 -0.28125,0.0767 -0.31602,0.0915 -0.0347,0.0148 -0.2054,0.0719 -0.37922,0.127 -0.17381,0.0551 -0.34042,0.11355 -0.37025,0.12986 -0.0298,0.0163 -0.10804,0.0435 -0.17381,0.0605 -0.17075,0.0439 -0.50632,0.1555 -0.6726,0.22364 -0.14579,0.0597 -0.53681,0.21572 -0.79004,0.31513 -0.19768,0.0776 -0.76391,0.33735 -1.18507,0.54364 -0.26895,0.13173 -1.02922,0.55864 -1.31146,0.73642 -0.14774,0.0931 -0.35395,0.22111 -0.45823,0.28457 -0.10429,0.0635 -0.28916,0.18596 -0.41082,0.27224 -0.12168,0.0863 -0.25924,0.18174 -0.3057,0.21214 -0.28571,0.18694 -1.20321,0.92747 -1.43424,1.15758 -0.10529,0.10488 -0.24039,0.23533 -0.30021,0.28991 -0.30597,0.2791 -1.08467,1.19135 -1.21033,1.41788 -0.0289,0.0521 -0.12344,0.19411 -0.2102,0.31576 -0.0868,0.12165 -0.15772,0.23159 -0.15772,0.24431 0,0.0128 -0.0476,0.098 -0.10583,0.18964 -0.16664,0.26222 -0.58941,1.10949 -0.58941,1.18124 0,0.03 -0.15124,0.42289 -0.18909,0.49132 -0.0159,0.0289 -0.0523,0.1768 -0.0808,0.32891 -0.0286,0.15209 -0.0651,0.29918 -0.0813,0.32685 -0.0316,0.0539 -0.11651,0.68685 -0.14455,1.07737 -0.009,0.13037 -0.002,0.34368 0.0172,0.47403 0.0188,0.13036 0.0497,0.36501 0.0688,0.52144 0.019,0.15642 0.0467,0.31285 0.0615,0.34761 0.0148,0.0347 0.0498,0.16275 0.0777,0.28442 0.0279,0.12166 0.0703,0.27098 0.0942,0.33182 0.15196,0.38704 0.35402,0.82241 0.47667,1.02705 0.0416,0.0695 0.0892,0.15543 0.1057,0.19091 0.0165,0.0356 0.0528,0.0834 0.0806,0.10657 0.0278,0.0231 0.0506,0.0539 0.0506,0.0683 0,0.0374 0.26998,0.42173 0.45339,0.64548 0.25511,0.31125 0.9387,0.95884 1.29146,1.22346 0.0397,0.0299 0.15047,0.11642 0.24606,0.19247 0.19325,0.15374 0.6359,0.44657 0.85062,0.5627 0.0768,0.0415 0.20115,0.11104 0.27644,0.15449 0.0752,0.0434 0.28267,0.15511 0.46085,0.24813 0.1782,0.0931 0.34532,0.18715 0.3714,0.20919 0.0261,0.0221 0.0829,0.0528 0.1264,0.0682 0.0843,0.03 0.54443,0.27031 0.80585,0.42086 0.0869,0.05 0.20067,0.11149 0.25281,0.13657 0.48252,0.23203 0.5602,0.43276 0.57758,1.4926 0.0255,1.55632 -0.0303,1.81953 -0.43537,2.05344 -0.23039,0.13304 -30.45145,0.10884 -30.59702,-0.0245 z"
         id="path6"
         sodipodi:nodetypes="cssssssssssssssssccsssssssssssssssssssssssssssssssssssssssssssssscsssssssssccscssssssssssssssssssssssscsssssscscccccssssssssssscssscscc" /><g
         id="g2"
         transform="matrix(-0.05121356,-0.049111,-0.049111,0.05121356,101.33285,108.26735)"
         style="fill:#000000;stroke:#ffffff;stroke-width:31.00523736;stroke-dasharray:none;stroke-opacity:1;paint-order:markers stroke fill">
	
	<g
   id="g6"
   transform="matrix(-0.04189636,-0.99912196,-0.99912196,0.04189636,49.678143,29.77289)"
   style="fill:#000000;stroke-width:31.00523742;stroke-dasharray:none;paint-order:markers stroke fill"><path
     class="st0"
     d="M 423.29,90.281 C 398.149,53.719 351.306,0 280.071,0 c -39.609,0 -86.875,0 -86.875,0 -3.578,0 -6.484,2.906 -6.484,6.469 v 3.063 c 0,3.563 -2.891,6.469 -6.469,6.469 H 159.68 c -3.578,0 -6.469,-2.906 -6.469,-6.469 V 6.469 C 153.211,2.906 150.305,0 146.727,0 H 96.431 C 89.29,0 83.478,5.813 83.478,12.969 v 64.344 c 0,7.172 5.813,12.969 12.953,12.969 h 50.297 c 3.578,0 6.484,-2.906 6.484,-6.469 v -3.047 c 0,-3.578 2.891,-6.484 6.469,-6.484 h 20.563 c 3.578,0 6.469,2.906 6.469,6.484 v 9.516 52.578 h 91.438 v -26.656 c 0,-14.313 11.609,-25.922 25.906,-25.922 0,0 6.641,0 7.234,0 48,0 73.156,10.281 97.156,20.563 15.281,6.561 27.421,-6.845 14.843,-20.564 z"
     id="path1"
     style="fill:#000000;stroke:#ffffff;stroke-width:31.00523742;stroke-dasharray:none;stroke-opacity:1;paint-order:markers stroke fill" /><path
     class="st0"
     d="m 266.056,512 c 5.234,0 10.234,-2.109 13.906,-5.844 3.656,-3.75 5.641,-8.813 5.531,-14.031 l -7.344,-321.844 h -91.438 l -7.328,321.844 c -0.125,5.219 1.875,10.281 5.531,14.031 3.656,3.734 8.672,5.844 13.891,5.844 z"
     id="path2"
     style="fill:#000000;stroke:#ffffff;stroke-width:31.00523742;stroke-dasharray:none;stroke-opacity:1;paint-order:markers stroke fill" /></g>
</g></g></g></svg>
